<svg width="147" height="54" viewBox="0 0 147 54" fill="none" xmlns="http://www.w3.org/2000/svg">
<rect y="3" width="147" height="51" fill="black"/>
<path d="M9.66 49.002C9.32267 49.002 8.924 48.9407 8.464 48.818C8.03467 48.726 7.60533 48.542 7.176 48.266C6.74667 48.0207 6.394 47.6527 6.118 47.162C5.842 46.702 5.704 46.0887 5.704 45.322C5.704 44.2487 5.96467 42.838 6.486 41.09C7.00733 39.3113 7.60533 37.3487 8.28 35.202C8.80133 33.546 9.30733 31.8287 9.798 30.05C10.2887 28.2713 10.6873 26.4927 10.994 24.714C11.3313 22.9353 11.5 21.2333 11.5 19.608C11.5 18.4733 11.454 17.4153 11.362 16.434C11.3007 15.4527 11.0707 14.6707 10.672 14.088C10.304 13.4747 9.66 13.168 8.74 13.168C7.88133 13.168 7.14533 13.4287 6.532 13.95C5.94933 14.4407 5.45867 15.0847 5.06 15.882C4.692 16.6793 4.416 17.5227 4.232 18.412C4.07867 19.3013 4.002 20.1293 4.002 20.896C4.002 21.908 4.14 22.736 4.416 23.38C3.22 23.38 2.37667 23.058 1.886 22.414C1.39533 21.7393 1.15 20.9573 1.15 20.068C1.15 19.1173 1.36467 18.1667 1.794 17.216C2.254 16.2653 2.86733 15.3913 3.634 14.594C4.43133 13.766 5.336 13.1067 6.348 12.616C7.36 12.1253 8.43333 11.88 9.568 11.88C11.4693 11.88 12.88 12.6313 13.8 14.134C14.7507 15.606 15.226 17.584 15.226 20.068C15.226 22.3067 14.904 24.6833 14.26 27.198C13.6467 29.682 12.9567 32.1047 12.19 34.466C11.6993 35.9993 11.224 37.4713 10.764 38.882C10.3347 40.262 9.982 41.5347 9.706 42.7C9.43 43.8653 9.292 44.8927 9.292 45.782C9.292 46.3647 9.384 46.8093 9.568 47.116C9.752 47.4227 10.12 47.576 10.672 47.576C11.4387 47.576 12.282 47.208 13.202 46.472C14.1527 45.7667 15.1033 44.8007 16.054 43.574C17.0353 42.3473 17.9707 40.998 18.86 39.526C19.78 38.0233 20.608 36.49 21.344 34.926C22.1107 33.362 22.7393 31.8747 23.23 30.464C23.7513 29.0533 24.0733 27.842 24.196 26.83C25.208 26.83 25.9133 27.0907 26.312 27.612C26.7413 28.1333 26.956 28.624 26.956 29.084C26.956 29.5747 26.7567 30.326 26.358 31.338C25.9593 32.35 25.484 33.4847 24.932 34.742C24.472 35.846 23.9967 37.0267 23.506 38.284C23.046 39.5413 22.6473 40.7987 22.31 42.056C22.0033 43.3133 21.85 44.5093 21.85 45.644C21.85 46.2267 21.9267 46.6867 22.08 47.024C22.2333 47.392 22.586 47.576 23.138 47.576C23.9967 47.576 24.9933 47.1313 26.128 46.242C27.2627 45.3833 28.428 44.2027 29.624 42.7C30.8507 41.1667 32.0313 39.4493 33.166 37.548C34.3313 35.6467 35.374 33.6687 36.294 31.614C37.214 29.5287 37.95 27.4893 38.502 25.496C39.054 23.5027 39.33 21.6627 39.33 19.976C39.33 18.4427 39.1 17.3233 38.64 16.618C38.18 15.882 37.5667 15.4067 36.8 15.192C37.2293 14.456 37.674 13.9193 38.134 13.582C38.6247 13.2447 39.0693 13.076 39.468 13.076C40.112 13.076 40.7407 13.49 41.354 14.318C41.9673 15.146 42.274 16.434 42.274 18.182C42.274 19.8687 41.952 21.7853 41.308 23.932C40.6947 26.0787 39.8513 28.3173 38.778 30.648C37.7047 32.948 36.478 35.1867 35.098 37.364C33.718 39.5413 32.2767 41.504 30.774 43.252C29.2713 45 27.784 46.3953 26.312 47.438C24.84 48.4807 23.4753 49.002 22.218 49.002C21.6353 49.002 21.0373 48.8793 20.424 48.634C19.8107 48.3887 19.2893 48.0053 18.86 47.484C18.4613 46.9933 18.262 46.3493 18.262 45.552C18.262 45.092 18.3387 44.5093 18.492 43.804C18.676 43.068 18.906 42.2707 19.182 41.412C17.618 43.62 16.008 45.4293 14.352 46.84C12.7267 48.2813 11.1627 49.002 9.66 49.002ZM43.8315 46.196C42.6355 46.196 41.7462 45.8127 41.1635 45.046C40.5809 44.31 40.2895 43.4053 40.2895 42.332C40.2895 41.6267 40.4122 40.7373 40.6575 39.664C40.9335 38.5907 41.2862 37.4713 41.7155 36.306C42.1449 35.11 42.6355 33.9907 43.1875 32.948C43.7702 31.9053 44.3835 31.062 45.0275 30.418C45.6715 29.7433 46.3002 29.406 46.9135 29.406C47.1895 29.406 47.4195 29.498 47.6035 29.682C47.8182 29.8353 47.9255 30.0807 47.9255 30.418C47.9255 30.786 47.6802 31.384 47.1895 32.212C46.7295 33.04 46.1775 33.9907 45.5335 35.064C44.8895 36.1373 44.3222 37.272 43.8315 38.468C43.3715 39.6333 43.1415 40.7527 43.1415 41.826C43.1415 42.93 43.3255 43.666 43.6935 44.034C44.0615 44.402 44.6289 44.586 45.3955 44.586C46.4382 44.586 47.5422 44.0647 48.7075 43.022C49.9035 41.9793 51.1609 40.1547 52.4795 37.548L52.8935 38.008C52.0042 40.6453 50.7162 42.6693 49.0295 44.08C47.3735 45.4907 45.6409 46.196 43.8315 46.196ZM49.3515 25.128C48.8609 25.128 48.4162 25.0053 48.0175 24.76C47.6495 24.5147 47.4655 24.1313 47.4655 23.61C47.4655 22.966 47.8335 22.414 48.5695 21.954C49.3362 21.4633 50.0875 21.218 50.8235 21.218C51.2835 21.218 51.6515 21.3253 51.9275 21.54C52.2035 21.7547 52.3415 22.1227 52.3415 22.644C52.3415 23.2267 52.0195 23.794 51.3755 24.346C50.7622 24.8673 50.0875 25.128 49.3515 25.128ZM56.4452 47.346C55.0039 47.346 53.8539 47.024 52.9952 46.38C52.1672 45.7667 51.5846 45 51.2472 44.08C50.8792 43.16 50.6952 42.24 50.6952 41.32C50.6952 40.4 50.8179 39.6947 51.0632 39.204C51.3086 38.7133 51.5999 38.3453 51.9372 38.1C52.3052 37.8547 52.6426 37.6707 52.9492 37.548C53.2866 37.4253 53.5166 37.3027 53.6392 37.18C54.5592 36.168 55.4026 35.11 56.1692 34.006C56.9359 32.902 57.6106 31.7367 58.1932 30.51V29.958C58.1932 28.8233 58.3772 28.026 58.7452 27.566C59.1439 27.0753 59.5579 26.83 59.9872 26.83C60.2326 26.83 60.4166 26.8913 60.5392 27.014C60.6619 27.1367 60.7232 27.2747 60.7232 27.428C60.7232 27.5813 60.6772 27.8267 60.5852 28.164C60.4932 28.5013 60.4472 28.9307 60.4472 29.452C60.4472 30.464 60.6466 31.568 61.0452 32.764C61.4439 33.9293 61.8426 35.1713 62.2412 36.49C62.6399 37.778 62.8392 39.1273 62.8392 40.538C62.8392 40.9367 62.8086 41.3353 62.7472 41.734C62.7166 42.102 62.6552 42.4547 62.5632 42.792C63.6366 42.608 64.6486 42.1327 65.5992 41.366C66.5499 40.5687 67.4699 39.3113 68.3592 37.594L68.7732 38.054C68.1906 39.7407 67.3166 41.0287 66.1512 41.918C64.9859 42.7767 63.7132 43.3133 62.3332 43.528C61.8426 44.8467 61.0606 45.8127 59.9872 46.426C58.9446 47.0393 57.7639 47.346 56.4452 47.346ZM56.5372 45.736C56.9052 45.736 57.3959 45.6133 58.0092 45.368C58.6226 45.1227 59.0979 44.494 59.4352 43.482C58.1472 43.2367 56.9972 42.7307 55.9852 41.964C55.0039 41.1973 54.2679 40.4307 53.7772 39.664C53.1026 39.6947 52.7652 40.2313 52.7652 41.274C52.7652 42.378 53.0872 43.4053 53.7312 44.356C54.4059 45.276 55.3412 45.736 56.5372 45.736ZM59.6652 42.746C59.7266 42.4393 59.7726 42.1173 59.8032 41.78C59.8339 41.4427 59.8492 41.044 59.8492 40.584C59.8492 39.1427 59.6652 37.7167 59.2972 36.306C58.9599 34.8647 58.6686 33.5153 58.4232 32.258C57.7179 33.4233 56.9666 34.5427 56.1692 35.616C55.4026 36.6587 54.6666 37.5327 53.9612 38.238C54.4212 39.2193 55.1266 40.1393 56.0772 40.998C57.0586 41.8567 58.2546 42.4393 59.6652 42.746ZM69.6347 46.748C69.052 46.748 68.592 46.2573 68.2547 45.276C67.9173 44.2947 67.7487 43.1907 67.7487 41.964C67.7487 40.492 67.994 38.744 68.4847 36.72C68.9753 34.696 69.6193 32.5647 70.4167 30.326C71.214 28.0873 72.1033 25.8947 73.0847 23.748C74.0967 21.6013 75.124 19.654 76.1667 17.906C77.2093 16.158 78.1907 14.7627 79.1107 13.72C80.0307 12.6773 80.828 12.156 81.5027 12.156C82.0547 12.156 82.438 12.4933 82.6527 13.168C82.898 13.812 83.0207 14.4407 83.0207 15.054C83.0207 15.9127 82.8213 16.9553 82.4227 18.182C82.0547 19.4087 81.5333 20.7273 80.8587 22.138C80.184 23.518 79.402 24.8827 78.5127 26.232C77.6233 27.5813 76.6573 28.8233 75.6147 29.958C74.572 31.062 73.514 31.936 72.4407 32.58C72.0727 33.4693 71.7507 34.466 71.4747 35.57C71.2293 36.674 71.0453 37.7627 70.9227 38.836C70.8 39.8787 70.7387 40.814 70.7387 41.642C70.7387 41.9793 70.7387 42.2707 70.7387 42.516C70.7693 42.7613 70.8 42.9913 70.8307 43.206C71.26 41.9487 71.72 40.7373 72.2107 39.572C72.732 38.376 73.284 37.2873 73.8667 36.306C74.4493 35.294 75.0627 34.42 75.7067 33.684C76.3813 32.9173 77.0867 32.3347 77.8227 31.936C78.5587 31.5067 79.3407 31.292 80.1687 31.292C81.0273 31.292 81.702 31.5067 82.1927 31.936C82.714 32.3347 83.082 32.856 83.2967 33.5C83.542 34.1133 83.6647 34.7573 83.6647 35.432C83.6647 36.3827 83.496 37.3027 83.1587 38.192C82.852 39.0813 82.53 39.94 82.1927 40.768C81.8553 41.596 81.6867 42.3933 81.6867 43.16C81.6867 43.7733 81.8093 44.218 82.0547 44.494C82.3307 44.77 82.668 44.908 83.0667 44.908C83.772 44.908 84.554 44.5707 85.4127 43.896C86.302 43.2213 87.176 42.332 88.0347 41.228C88.8933 40.0933 89.6293 38.8667 90.2427 37.548L90.8407 38.1C90.1967 39.6027 89.4147 40.9673 88.4947 42.194C87.5747 43.39 86.5627 44.3407 85.4587 45.046C84.3547 45.7513 83.2047 46.104 82.0087 46.104C80.966 46.104 80.1687 45.828 79.6167 45.276C79.0953 44.724 78.8347 44.034 78.8347 43.206C78.8347 42.562 78.9573 41.8413 79.2027 41.044C79.448 40.2467 79.678 39.434 79.8927 38.606C80.138 37.778 80.2607 36.996 80.2607 36.26C80.2607 35.4627 80.092 34.8953 79.7547 34.558C79.4173 34.2207 79.0033 34.052 78.5127 34.052C77.746 34.052 77.056 34.3587 76.4427 34.972C75.8293 35.5853 75.262 36.3827 74.7407 37.364C74.25 38.3147 73.7747 39.3267 73.3147 40.4C72.8853 41.4733 72.4713 42.5007 72.0727 43.482C71.674 44.4327 71.2753 45.2147 70.8767 45.828C70.478 46.4413 70.064 46.748 69.6347 46.748ZM73.0387 30.786C73.8973 30.1113 74.7253 29.2527 75.5227 28.21C76.3507 27.1673 77.1173 26.0633 77.8227 24.898C78.528 23.702 79.1567 22.5367 79.7087 21.402C80.2607 20.2673 80.69 19.24 80.9967 18.32C81.3033 17.4 81.4567 16.71 81.4567 16.25C81.4567 16.0967 81.4413 16.0047 81.4107 15.974C81.38 15.9127 81.334 15.882 81.2727 15.882C81.058 15.882 80.6133 16.3113 79.9387 17.17C79.2947 17.998 78.5433 19.1173 77.6847 20.528C76.826 21.9387 75.9827 23.5333 75.1547 25.312C74.3267 27.0907 73.6213 28.9153 73.0387 30.786ZM93.1676 46.38C91.8489 46.38 90.8983 45.92 90.3156 45C89.7636 44.1107 89.4876 42.9913 89.4876 41.642C89.4876 40.17 89.7636 38.422 90.3156 36.398C90.8676 34.374 91.5883 32.2427 92.4776 30.004C93.3976 27.7653 94.3943 25.588 95.4676 23.472C96.5409 21.3253 97.6143 19.378 98.6876 17.63C99.7609 15.882 100.742 14.4867 101.632 13.444C102.552 12.4013 103.272 11.88 103.794 11.88C104.131 11.88 104.407 12.0793 104.622 12.478C104.836 12.846 105.005 13.306 105.128 13.858C105.25 14.3793 105.312 14.8547 105.312 15.284C105.312 16.112 105.097 17.2007 104.668 18.55C104.269 19.8687 103.686 21.356 102.92 23.012C102.184 24.6373 101.294 26.2933 100.252 27.98C99.2396 29.636 98.1203 31.2307 96.8936 32.764C95.6976 34.2973 94.4249 35.616 93.0756 36.72C92.8916 37.548 92.7383 38.3607 92.6156 39.158C92.5236 39.9247 92.4776 40.6607 92.4776 41.366C92.4776 42.562 92.6463 43.4513 92.9836 44.034C93.3209 44.6167 93.8269 44.908 94.5016 44.908C95.3296 44.908 96.1423 44.54 96.9396 43.804C97.7676 43.068 98.5343 42.148 99.2396 41.044C99.9756 39.9093 100.604 38.744 101.126 37.548L101.816 37.916C100.589 40.5227 99.2549 42.5927 97.8136 44.126C96.3723 45.6287 94.8236 46.38 93.1676 46.38ZM93.4896 35.156C94.5629 34.0827 95.6056 32.856 96.6176 31.476C97.6296 30.0653 98.5649 28.6087 99.4236 27.106C100.313 25.6033 101.095 24.1467 101.77 22.736C102.444 21.3253 102.966 20.068 103.334 18.964C103.702 17.8293 103.886 16.9553 103.886 16.342C103.886 16.0353 103.84 15.836 103.748 15.744C103.686 15.652 103.625 15.606 103.564 15.606C103.318 15.606 102.889 16.0047 102.276 16.802C101.693 17.5687 101.003 18.6113 100.206 19.93C99.4083 21.2487 98.5956 22.7513 97.7676 24.438C96.9396 26.1247 96.1423 27.888 95.3756 29.728C94.6396 31.568 94.0109 33.3773 93.4896 35.156ZM103.533 46.196C102.337 46.196 101.447 45.8127 100.865 45.046C100.282 44.31 99.9907 43.4053 99.9907 42.332C99.9907 41.6267 100.113 40.7373 100.359 39.664C100.635 38.5907 100.987 37.4713 101.417 36.306C101.846 35.11 102.337 33.9907 102.889 32.948C103.471 31.9053 104.085 31.062 104.729 30.418C105.373 29.7433 106.001 29.406 106.615 29.406C106.891 29.406 107.121 29.498 107.305 29.682C107.519 29.8353 107.627 30.0807 107.627 30.418C107.627 30.786 107.381 31.384 106.891 32.212C106.431 33.04 105.879 33.9907 105.235 35.064C104.591 36.1373 104.023 37.272 103.533 38.468C103.073 39.6333 102.843 40.7527 102.843 41.826C102.843 42.93 103.027 43.666 103.395 44.034C103.763 44.402 104.33 44.586 105.097 44.586C106.139 44.586 107.243 44.0647 108.409 43.022C109.605 41.9793 110.862 40.1547 112.181 37.548L112.595 38.008C111.705 40.6453 110.417 42.6693 108.731 44.08C107.075 45.4907 105.342 46.196 103.533 46.196ZM109.053 25.128C108.562 25.128 108.117 25.0053 107.719 24.76C107.351 24.5147 107.167 24.1313 107.167 23.61C107.167 22.966 107.535 22.414 108.271 21.954C109.037 21.4633 109.789 21.218 110.525 21.218C110.985 21.218 111.353 21.3253 111.629 21.54C111.905 21.7547 112.043 22.1227 112.043 22.644C112.043 23.2267 111.721 23.794 111.077 24.346C110.463 24.8673 109.789 25.128 109.053 25.128ZM116.146 47.346C114.705 47.346 113.555 47.024 112.696 46.38C111.868 45.7667 111.286 45 110.948 44.08C110.58 43.16 110.396 42.24 110.396 41.32C110.396 40.4 110.519 39.6947 110.764 39.204C111.01 38.7133 111.301 38.3453 111.638 38.1C112.006 37.8547 112.344 37.6707 112.65 37.548C112.988 37.4253 113.218 37.3027 113.34 37.18C114.26 36.168 115.104 35.11 115.87 34.006C116.637 32.902 117.312 31.7367 117.894 30.51V29.958C117.894 28.8233 118.078 28.026 118.446 27.566C118.845 27.0753 119.259 26.83 119.688 26.83C119.934 26.83 120.118 26.8913 120.24 27.014C120.363 27.1367 120.424 27.2747 120.424 27.428C120.424 27.5813 120.378 27.8267 120.286 28.164C120.194 28.5013 120.148 28.9307 120.148 29.452C120.148 30.464 120.348 31.568 120.746 32.764C121.145 33.9293 121.544 35.1713 121.942 36.49C122.341 37.778 122.54 39.1273 122.54 40.538C122.54 40.9367 122.51 41.3353 122.448 41.734C122.418 42.102 122.356 42.4547 122.264 42.792C123.338 42.608 124.35 42.1327 125.3 41.366C126.251 40.5687 127.171 39.3113 128.06 37.594L128.474 38.054C127.892 39.7407 127.018 41.0287 125.852 41.918C124.687 42.7767 123.414 43.3133 122.034 43.528C121.544 44.8467 120.762 45.8127 119.688 46.426C118.646 47.0393 117.465 47.346 116.146 47.346ZM116.238 45.736C116.606 45.736 117.097 45.6133 117.71 45.368C118.324 45.1227 118.799 44.494 119.136 43.482C117.848 43.2367 116.698 42.7307 115.686 41.964C114.705 41.1973 113.969 40.4307 113.478 39.664C112.804 39.6947 112.466 40.2313 112.466 41.274C112.466 42.378 112.788 43.4053 113.432 44.356C114.107 45.276 115.042 45.736 116.238 45.736ZM119.366 42.746C119.428 42.4393 119.474 42.1173 119.504 41.78C119.535 41.4427 119.55 41.044 119.55 40.584C119.55 39.1427 119.366 37.7167 118.998 36.306C118.661 34.8647 118.37 33.5153 118.124 32.258C117.419 33.4233 116.668 34.5427 115.87 35.616C115.104 36.6587 114.368 37.5327 113.662 38.238C114.122 39.2193 114.828 40.1393 115.778 40.998C116.76 41.8567 117.956 42.4393 119.366 42.746ZM131.084 47.116C129.765 47.116 128.753 46.7327 128.048 45.966C127.342 45.1993 126.99 44.0647 126.99 42.562C126.99 41.2127 127.235 39.5567 127.726 37.594C128.247 35.6007 128.891 33.5613 129.658 31.476C129.351 31.4147 129.06 31.3687 128.784 31.338C128.508 31.2767 128.247 31.2 128.002 31.108V30.28C128.247 30.3107 128.538 30.3413 128.876 30.372C129.213 30.4027 129.596 30.4333 130.026 30.464C130.67 28.808 131.36 27.2133 132.096 25.68C132.832 24.116 133.552 22.736 134.258 21.54C134.994 20.3133 135.684 19.3473 136.328 18.642C137.002 17.906 137.57 17.538 138.03 17.538C138.275 17.538 138.49 17.63 138.674 17.814C138.888 17.9673 138.996 18.2127 138.996 18.55C138.996 19.0713 138.674 19.93 138.03 21.126C137.386 22.2913 136.588 23.6867 135.638 25.312C134.687 26.9373 133.767 28.7007 132.878 30.602C133.154 30.602 133.43 30.602 133.706 30.602C134.012 30.602 134.304 30.602 134.58 30.602C135.592 30.602 136.65 30.5867 137.754 30.556C138.888 30.5253 140.023 30.4487 141.158 30.326V31.154C139.471 31.338 137.953 31.476 136.604 31.568C135.285 31.66 134.104 31.706 133.062 31.706C132.939 31.706 132.816 31.706 132.694 31.706C132.602 31.706 132.494 31.706 132.372 31.706C131.666 33.3313 131.068 35.0027 130.578 36.72C130.087 38.4373 129.842 40.1087 129.842 41.734C129.842 43.0527 130.041 44.0033 130.44 44.586C130.838 45.138 131.498 45.414 132.418 45.414C134.012 45.414 135.576 44.7087 137.11 43.298C138.643 41.8873 139.992 39.9707 141.158 37.548L141.756 38.008C141.02 39.7253 140.084 41.274 138.95 42.654C137.846 44.034 136.619 45.1227 135.27 45.92C133.92 46.7173 132.525 47.116 131.084 47.116Z" fill="white"/>
<path d="M116 0H139V41C133.993 41 130.817 34.6923 126.895 34.6923C123.782 34.6923 119.975 41 116 41V0Z" fill="#89969F" fill-opacity="0.86"/>
</svg>
